<?xml version="1.0" standalone="no"?>
<svg xmlns:xlink="http://www.w3.org/1999/xlink" id="wave" style="transform:rotate(180deg); transition: 0.3s" viewBox="0 0 1440 100" version="1.1" xmlns="http://www.w3.org/2000/svg"><defs><linearGradient id="sw-gradient-0" x1="0" x2="0" y1="1" y2="0"><stop stop-color="rgba(255, 249, 234, 1)" offset="0%"/><stop stop-color="rgba(255, 249, 234, 1)" offset="100%"/></linearGradient></defs><path style="transform:translate(0, 0px); opacity:1" fill="url(#sw-gradient-0)" d="M0,20L26.7,30C53.3,40,107,60,160,60C213.3,60,267,40,320,40C373.3,40,427,60,480,58.3C533.3,57,587,33,640,31.7C693.3,30,747,50,800,56.7C853.3,63,907,57,960,46.7C1013.3,37,1067,23,1120,23.3C1173.3,23,1227,37,1280,40C1333.3,43,1387,37,1440,28.3C1493.3,20,1547,10,1600,18.3C1653.3,27,1707,53,1760,68.3C1813.3,83,1867,87,1920,88.3C1973.3,90,2027,90,2080,81.7C2133.3,73,2187,57,2240,46.7C2293.3,37,2347,33,2400,26.7C2453.3,20,2507,10,2560,11.7C2613.3,13,2667,27,2720,33.3C2773.3,40,2827,40,2880,36.7C2933.3,33,2987,27,3040,30C3093.3,33,3147,47,3200,45C3253.3,43,3307,27,3360,25C3413.3,23,3467,37,3520,50C3573.3,63,3627,77,3680,75C3733.3,73,3787,57,3813,48.3L3840,40L3840,100L3813.3,100C3786.7,100,3733,100,3680,100C3626.7,100,3573,100,3520,100C3466.7,100,3413,100,3360,100C3306.7,100,3253,100,3200,100C3146.7,100,3093,100,3040,100C2986.7,100,2933,100,2880,100C2826.7,100,2773,100,2720,100C2666.7,100,2613,100,2560,100C2506.7,100,2453,100,2400,100C2346.7,100,2293,100,2240,100C2186.7,100,2133,100,2080,100C2026.7,100,1973,100,1920,100C1866.7,100,1813,100,1760,100C1706.7,100,1653,100,1600,100C1546.7,100,1493,100,1440,100C1386.7,100,1333,100,1280,100C1226.7,100,1173,100,1120,100C1066.7,100,1013,100,960,100C906.7,100,853,100,800,100C746.7,100,693,100,640,100C586.7,100,533,100,480,100C426.7,100,373,100,320,100C266.7,100,213,100,160,100C106.7,100,53,100,27,100L0,100Z"/></svg>